/* XPM */
static char *control_repeat_blue[] = {
/* columns rows colors chars-per-pixel */
"16 16 115 2 ",
"   c #4974AA",
".  c #4E7CB6",
"X  c #507EB9",
"o  c #517FBB",
"O  c #5180BD",
"+  c #5281BE",
"@  c #7991AE",
"#  c #7792B5",
"$  c #7994B7",
"%  c #5283C0",
"&  c #5384C1",
"*  c #5485C3",
"=  c #6F9DD7",
"-  c #75A1D8",
";  c #7AA4DA",
":  c #88919C",
">  c #8C949F",
",  c #909295",
"<  c #949698",
"1  c #8E97A2",
"2  c #929AA3",
"3  c #949CA7",
"4  c #919CA8",
"5  c #8198B6",
"6  c #839BB8",
"7  c #A0A2A4",
"8  c #A5A7A9",
"9  c #A3ABB3",
"0  c #A0A9B4",
"q  c #8CA7CA",
"w  c #94ABC8",
"e  c #88AEDE",
"r  c #8BB0DF",
"t  c #94B0D2",
"y  c #9CB7DA",
"u  c #9FBADD",
"i  c #B3BBC3",
"p  c #BABFC7",
"a  c #A7BEDC",
"s  c #97B9E2",
"d  c #9DBCE4",
"f  c #BEC3CA",
"g  c #AAC1DF",
"h  c #B8C3D2",
"j  c #BFC9D6",
"k  c #A3C0E5",
"l  c #AEC5E2",
"z  c #AEC6E3",
"x  c #A8C3E6",
"c  c #ACC7E8",
"v  c #BBD0EC",
"b  c #BCD1EC",
"n  c #BED3ED",
"m  c #C4CAD1",
"M  c #C2CBD6",
"N  c #C7CDD4",
"B  c #C4CDD8",
"V  c #C7CFDA",
"C  c #C8D0DB",
"Z  c #C8D1DC",
"A  c #D0D2D4",
"S  c #D1D3D5",
"D  c #D2D4D6",
"F  c #D3D5D7",
"G  c #D2D7DD",
"H  c #D4D8DE",
"J  c #D8DFE7",
"K  c #CEDDF1",
"L  c #D0DFF2",
"P  c #D6E0ED",
"I  c #DBE4EE",
"U  c #DBE4EF",
"Y  c #DCE4EF",
"T  c #D5E3F3",
"R  c #DAE5F5",
"E  c #DBE6F5",
"W  c #DCE7F5",
"Q  c #DDE8F6",
"!  c #DFE9F6",
"~  c #E1E5EC",
"^  c #E5E9EE",
"/  c #E1E8F1",
"(  c #E0EAF6",
")  c #E1EBF7",
"_  c #E3ECF7",
"`  c #E4EDF7",
"'  c #E8ECF1",
"]  c #E8EEF4",
"[  c #EAEFF6",
"{  c #E5EEF8",
"}  c #E6EFF8",
"|  c #E8EFF9",
" . c #EDF1F7",
".. c #E9F0F9",
"X. c #EBF1F9",
"o. c #EFF3F8",
"O. c #ECF2FA",
"+. c #EDF3FA",
"@. c #EEF3FA",
"#. c #EFF4FB",
"$. c #F2F5F9",
"%. c #F3F6F9",
"&. c #F1F5FA",
"*. c #F1F5FB",
"=. c #F3F6FA",
"-. c #F2F6FB",
";. c #F7F8FB",
":. c #F4F8FC",
">. c #F6F9FC",
",. c #F9FBFD",
"<. c #FAFCFE",
"1. c #FBFDFE",
"2. c #FEFEFF",
"3. c gray100",
"4. c None",
/* pixels */
"4.4.4.4.4.4.4.4.4.4.4.4.4.4.4.4.",
"4.4.4.4.4.l Z F S V g 4.4.4.4.4.",
"4.4.4.x G ' =.3.1.=.^ N u 4.4.4.",
"4.4.x H ;.3.:.O.O.;.3.=.m y 4.4.",
"4.4.G ;.3.X.X.{ X.{ { 3.=.p 4.4.",
"4.l ' 3.d * * * & & % ; 3.J w 4.",
"4.V =.:.* n { { _ _ v O =.[ 0 4.",
"4.S 1.O.* { ` ` ! = T O ) ,.8 4.",
"4.A 1.X.& v { R = o c O ) =.7 4.",
"4.M o.=.s   ) k o o . - O.I 3 4.",
"4.a I 3._ ! ! W r o K R 1.j 5 4.",
"4.4.f  .3.! ! W R e K 3.U 2 4.4.",
"4.4.t i [ 3.O.) ) O.1.U 4 $ 4.4.",
"4.4.4.q 9 Z / =.O.P h > # 4.4.4.",
"4.4.4.4.4.6 1 < , : @ 4.4.4.4.4.",
"4.4.4.4.4.4.4.4.4.4.4.4.4.4.4.4."
};
