/* XPM */
static char *control_repeat[] = {
/* columns rows colors chars-per-pixel */
"16 16 80 1 ",
"  c #686868",
". c #6F6F6F",
"X c #717171",
"o c #727272",
"O c gray45",
"+ c #747474",
"@ c gray46",
"# c #767676",
"$ c #777777",
"% c #8E8E8E",
"& c #909090",
"* c #929292",
"= c #939393",
"- c gray58",
"; c gray59",
": c #979797",
"> c #989898",
", c gray60",
"< c gray61",
"1 c #9D9D9D",
"2 c #A2A2A2",
"3 c gray64",
"4 c #A5A5A5",
"5 c #A7A7A7",
"6 c #AAAAAA",
"7 c gray67",
"8 c #AFAFAF",
"9 c gray70",
"0 c gray72",
"q c #B9B9B9",
"w c gray75",
"e c #C0C0C0",
"r c gray77",
"t c #C6C6C6",
"y c gray79",
"u c #CACACA",
"i c #CBCBCB",
"p c #CDCDCD",
"a c #CECECE",
"s c gray82",
"d c #D2D2D2",
"f c LightGray",
"g c gray83",
"h c #D5D5D5",
"j c gray84",
"k c #D7D7D7",
"l c #D8D8D8",
"z c gray85",
"x c gray86",
"c c #DDDDDD",
"v c #DFDFDF",
"b c #E1E1E1",
"n c #E2E2E2",
"m c gray89",
"M c #E4E4E4",
"N c gray90",
"B c #E6E6E6",
"V c #E7E7E7",
"C c gray91",
"Z c #E9E9E9",
"A c #EAEAEA",
"S c gray92",
"D c #ECECEC",
"F c gray93",
"G c #EEEEEE",
"H c #EFEFEF",
"J c gray94",
"K c #F1F1F1",
"L c gray95",
"P c #F3F3F3",
"I c #F4F4F4",
"U c gray96",
"Y c gray97",
"T c #F8F8F8",
"R c gray98",
"E c #FBFBFB",
"W c gray99",
"Q c #FEFEFE",
"! c gray100",
"~ c None",
/* pixels */
"~~~~~~~~~~~~~~~~",
"~~~~~kkkkff~~~~~",
"~~~~kSYEEPVp~~~~",
"~~~lY!YPPY!Yi~~~",
"~~lE!HHHHHS!Ye~~",
"~kS!9@@@@@@>!l9~",
"~kPY@iSSSVioPH7~",
"~kEH$HSSV%voSE5~",
"~fEH@iSV%owoSP3~",
"~pPY7 V9oo.-Pm<~",
"~pV!SVVV4olm!t>~",
"~~eH!VmVm3l!m>~~",
"~~~qH!PVVPEm-~~~",
"~~~~7pVPPvw-~~~~",
"~~~~~<>-%%%~~~~~",
"~~~~~~~~~~~~~~~~"
};
